<?xml version="1.0" standalone="no"?>
<!DOCTYPE svg PUBLIC "-//W3C//DTD SVG 20010904//EN"
 "http://www.w3.org/TR/2001/REC-SVG-20010904/DTD/svg10.dtd">
<svg version="1.0" xmlns="http://www.w3.org/2000/svg"
 width="1400.000000pt" height="1400.000000pt" viewBox="0 0 1400.000000 1400.000000"
 preserveAspectRatio="xMidYMid meet">

<g transform="translate(0.000000,1400.000000) scale(0.100000,-0.100000)"
fill="#000000" stroke="none">
<path d="M4197 9802 c-1538 -1538 -2797 -2799 -2797 -2802 0 -7 5588 -5594
5598 -5598 9 -3 5603 5591 5600 5600 -4 10 -5591 5598 -5598 5598 -3 0 -1264
-1259 -2803 -2798z m5477 -127 c1466 -1466 2666 -2670 2666 -2676 0 -12 -5326
-5339 -5339 -5339 -15 0 -5342 5331 -5339 5342 5 13 5331 5338 5340 5338 4 0
1206 -1199 2672 -2665z"/>
<path d="M4343 9652 c-1454 -1454 -2643 -2648 -2643 -2653 0 -11 5289 -5299
5301 -5299 12 0 5239 5225 5239 5237 0 4 -25 33 -55 63 l-56 57 -2558 -2559
c-1407 -1407 -2563 -2558 -2570 -2558 -16 0 -5061 5044 -5061 5059 0 15 5046
5061 5061 5061 7 0 848 -837 1871 -1860 1022 -1023 1864 -1860 1871 -1860 16
0 107 92 107 108 0 16 -3838 3852 -3853 3851 -7 -1 -1201 -1192 -2654 -2647z"/>
<path d="M4483 9514 c-1377 -1377 -2503 -2509 -2503 -2515 0 -6 1130 -1141
2511 -2522 l2510 -2511 2480 2480 c1363 1363 2479 2484 2479 2489 0 6 -25 35
-55 65 l-55 55 -2418 -2418 c-1329 -1329 -2424 -2417 -2432 -2417 -19 0 -4780
4760 -4780 4779 0 19 4761 4780 4780 4781 8 0 513 -498 1122 -1107 l1108
-1108 59 59 60 59 -1169 1169 c-642 642 -1174 1168 -1182 1167 -7 0 -1139
-1128 -2515 -2505z"/>
<path d="M4630 9365 l-2365 -2365 2365 -2365 c1301 -1301 2369 -2364 2375
-2363 5 1 1060 1053 2344 2338 l2333 2337 -48 47 c-27 25 -52 46 -55 46 -4 0
-1032 -1026 -2286 -2280 -1254 -1254 -2285 -2280 -2291 -2280 -13 0 -4522
4506 -4522 4519 0 10 4511 4521 4520 4521 4 0 203 -193 441 -430 l434 -430 50
50 50 50 -485 485 c-267 267 -487 485 -490 485 -3 0 -1069 -1064 -2370 -2365z"/>
<path d="M6883 11178 l-143 -142 -40 39 -40 40 -2058 -2058 -2057 -2057 2225
-2225 c1224 -1224 2228 -2225 2231 -2225 4 0 4369 4362 4399 4396 4 5 -4360
4374 -4370 4374 -3 0 -69 -64 -147 -142z m1981 -3015 c-8 -27 -19 -65 -26 -85
-8 -26 -17 -38 -30 -38 -16 0 -18 9 -18 73 l0 73 43 11 c23 5 43 11 44 12 1 0
-5 -20 -13 -46z m-3802 16 c51 -12 128 -61 128 -82 0 -15 -45 -59 -77 -76 -12
-6 -35 -11 -50 -11 -27 0 -29 2 -25 34 9 78 -61 137 -138 116 -74 -20 -108
-111 -57 -157 26 -25 86 -55 142 -73 59 -18 156 -68 184 -93 92 -84 76 -250
-30 -304 -133 -69 -402 -52 -504 31 l-30 24 23 22 c12 12 34 40 48 63 37 59
75 97 96 97 15 0 17 -3 8 -19 -16 -31 -12 -119 7 -152 49 -83 207 -77 242 10
34 80 -19 154 -159 219 -151 70 -190 109 -190 189 0 139 167 209 382 162z
m446 -87 l3 -102 42 22 c55 29 147 31 199 4 21 -10 48 -35 60 -55 21 -33 23
-51 28 -229 5 -186 6 -195 28 -212 12 -10 22 -21 22 -24 0 -3 -67 -6 -150 -6
-82 0 -150 2 -150 5 0 3 12 17 28 30 l27 23 0 174 c0 228 -13 260 -101 243
l-34 -6 0 -205 0 -205 25 -25 c14 -14 25 -27 25 -29 0 -3 -67 -5 -150 -5 -82
0 -150 2 -150 5 0 3 12 17 28 30 l27 23 3 249 c2 136 0 263 -3 282 -3 18 -18
44 -31 58 -14 14 -24 27 -22 29 5 5 220 32 233 29 6 -1 11 -46 13 -103z m3105
-80 c18 -10 42 -33 54 -52 22 -31 23 -43 23 -211 0 -185 7 -223 42 -234 51
-17 5 -25 -139 -25 l-157 0 32 29 32 30 0 176 c0 193 -8 229 -55 241 -26 6
-62 0 -80 -13 -6 -5 -8 -80 -5 -206 l5 -199 28 -23 c15 -13 27 -27 27 -30 0
-3 -70 -5 -155 -5 -97 0 -155 4 -155 10 0 6 6 10 14 10 8 0 22 10 30 22 13 18
16 56 16 206 0 190 -4 212 -43 244 l-22 16 25 6 c23 5 194 26 213 26 4 0 7 -9
7 -20 0 -21 24 -28 35 -10 3 5 27 16 53 25 57 18 132 13 175 -13z m-2294 7
c61 -13 108 -43 138 -88 21 -31 23 -45 23 -180 0 -157 10 -215 41 -234 37 -23
18 -28 -88 -23 -60 3 -121 4 -138 3 -16 -1 -73 -1 -126 -1 -81 1 -104 4 -145
25 -65 32 -94 76 -94 143 0 31 7 65 19 86 33 62 139 100 277 100 l64 0 0 36
c0 36 -15 73 -34 86 -35 24 -106 -15 -106 -58 0 -13 -5 -24 -10 -24 -19 0
-130 35 -130 41 0 3 15 20 34 38 56 54 165 74 275 50z m555 2 c3 -5 -1 -14 -9
-21 -23 -19 -19 -40 36 -151 l52 -104 24 55 c45 98 44 94 13 143 -16 25 -44
54 -62 64 l-33 18 149 3 c82 1 151 0 154 -3 3 -3 0 -11 -6 -17 -22 -22 -12
-64 37 -164 l49 -99 30 68 c17 37 39 89 49 116 16 47 16 51 0 69 -9 10 -14 22
-10 25 11 11 173 8 173 -3 0 -5 -7 -10 -15 -10 -38 0 -82 -71 -185 -293 l-105
-227 -80 164 c-44 91 -83 165 -86 165 -4 1 -40 -71 -80 -159 -41 -88 -77 -160
-80 -160 -3 0 -56 103 -117 229 -78 159 -121 237 -143 255 -17 14 -35 26 -40
26 -5 0 -9 5 -9 10 0 13 287 14 294 1z m1059 -21 c97 -50 151 -139 151 -246
-1 -142 -125 -264 -270 -264 -114 0 -228 86 -260 197 -40 139 44 288 187 332
50 15 143 6 192 -19z m1305 15 c63 -19 106 -53 97 -77 -9 -23 -47 -46 -81 -50
-25 -3 -28 0 -30 31 -2 46 -43 85 -87 85 -44 0 -83 -25 -91 -60 -12 -46 19
-74 131 -119 124 -51 156 -74 177 -127 38 -93 -12 -176 -119 -198 -111 -23
-264 -1 -316 46 -16 15 -15 19 16 72 36 62 62 82 51 38 -9 -38 17 -92 55 -111
35 -19 99 -16 124 5 23 19 29 74 11 107 -18 35 -40 51 -119 83 -94 39 -135 95
-127 175 8 90 168 141 308 100z m-3546 -916 c47 -11 138 -61 138 -77 0 -11
-60 -67 -87 -81 -12 -6 -35 -11 -52 -11 -27 0 -30 2 -22 22 9 25 -1 71 -21 96
-7 8 -28 21 -46 29 -69 29 -152 -22 -152 -94 0 -54 38 -83 180 -138 104 -40
132 -56 171 -96 52 -52 65 -88 57 -168 -6 -61 -36 -103 -91 -130 -124 -60
-359 -53 -474 15 -53 31 -60 42 -35 60 11 7 32 35 47 61 36 63 74 103 98 103
15 0 17 -4 11 -17 -4 -10 -9 -40 -12 -68 -6 -87 49 -145 138 -145 50 0 102 26
120 61 17 30 7 101 -19 137 -14 20 -65 53 -151 97 -86 44 -137 77 -151 97 -53
74 -23 182 63 226 79 41 170 47 290 21z m1758 -294 c0 -325 4 -358 42 -370 10
-4 18 -11 18 -17 0 -6 -74 -8 -217 -6 -182 3 -225 6 -258 21 -84 38 -126 104
-133 213 -7 104 16 173 77 234 72 72 158 88 242 46 18 -9 34 -16 36 -16 1 0 3
25 3 56 0 49 -4 59 -30 86 -17 17 -29 32 -27 34 2 2 55 10 118 18 63 7 117 14
122 15 4 0 7 -141 7 -314z m-1310 175 c0 -49 1 -50 30 -50 23 0 30 -4 30 -20
0 -16 -7 -20 -30 -20 l-30 0 0 -190 c0 -177 1 -191 20 -210 11 -11 31 -20 45
-20 31 0 32 -10 3 -38 -51 -47 -130 -52 -196 -11 -54 32 -62 67 -62 256 0 136
-3 173 -16 191 -8 12 -22 22 -30 22 -8 0 -14 8 -14 19 0 14 10 20 38 25 20 3
71 26 112 51 41 25 81 45 88 45 8 0 12 -17 12 -50z m372 -268 c3 -218 4 -235
22 -248 29 -21 63 -17 80 8 13 18 16 56 16 209 l0 186 -27 27 c-14 14 -23 29
-20 32 3 4 58 12 122 18 l115 11 0 -222 c0 -223 6 -266 37 -290 9 -7 14 -15
12 -17 -3 -3 -95 -6 -204 -8 -220 -3 -243 2 -297 59 -42 44 -48 74 -48 224 0
146 -9 186 -47 208 -10 5 -15 12 -12 15 8 9 233 33 241 27 4 -3 8 -111 10
-239z m1338 229 c0 -6 -4 -13 -10 -16 -21 -13 -8 -57 59 -191 l69 -139 61 130
c73 152 79 175 56 198 -23 24 -6 28 95 25 l83 -3 -39 -25 c-42 -27 -59 -58
-252 -455 -101 -208 -116 -225 -210 -225 -43 0 -61 5 -79 22 -29 27 -29 65 -1
95 29 31 44 29 51 -7 8 -36 46 -49 84 -29 27 14 67 82 55 93 -4 4 -61 114
-127 244 -109 215 -123 239 -157 257 -21 11 -38 23 -38 28 0 4 68 7 150 7 87
0 150 -4 150 -9z m-189 -1139 c14 -12 20 -25 16 -35 -8 -21 -27 -22 -27 -3 0
23 -20 30 -37 14 -12 -13 -7 -25 46 -94 44 -58 56 -80 45 -82 -9 -2 -24 4 -33
12 -16 15 -19 15 -31 1 -7 -8 -24 -15 -38 -15 -58 0 -84 72 -39 107 21 15 22
21 13 46 -10 25 -8 31 13 48 29 24 43 24 72 1z m-2993 -18 c24 -16 30 -44 8
-44 -7 0 -19 7 -26 15 -16 19 -84 20 -100 0 -19 -23 -16 -81 5 -105 21 -24 67
-26 89 -5 16 17 46 20 46 6 0 -5 -12 -19 -26 -30 -65 -51 -164 -5 -164 76 0
89 89 135 168 87z m1275 -15 c61 -66 17 -169 -73 -169 -60 0 -100 41 -100 103
0 97 105 137 173 66z m2785 19 c16 -14 15 -38 -2 -38 -7 0 -19 7 -26 15 -16
19 -34 19 -51 -1 -11 -14 -10 -19 10 -35 13 -11 30 -19 39 -19 22 0 52 -30 52
-52 0 -49 -82 -77 -122 -41 -24 21 -23 33 2 33 11 0 20 -4 20 -10 0 -5 14 -10
30 -10 25 0 30 4 30 25 0 19 -7 26 -27 31 -49 11 -73 32 -73 63 0 16 6 33 13
39 27 22 77 22 105 0z m388 -9 c17 -14 18 -39 2 -39 -6 0 -19 6 -27 14 -27 24
-71 24 -95 0 -21 -20 -20 -83 1 -106 19 -22 62 -23 89 -3 10 8 27 15 36 15 25
0 11 -28 -23 -45 -83 -43 -172 19 -155 108 7 39 32 65 72 76 31 8 77 -1 100
-20z m222 9 c16 -14 15 -38 -2 -38 -7 0 -19 7 -26 15 -16 19 -34 19 -51 -1
-11 -14 -10 -19 10 -35 13 -11 30 -19 39 -19 22 0 52 -30 52 -52 0 -49 -82
-77 -122 -41 -24 21 -23 33 2 33 11 0 20 -4 20 -10 0 -5 14 -10 30 -10 25 0
30 4 30 25 0 19 -7 26 -27 31 -49 11 -73 32 -73 63 0 16 6 33 13 39 27 22 77
22 105 0z m-4422 -88 c19 -52 34 -96 34 -97 0 -2 -8 -3 -19 -3 -10 0 -21 9
-24 20 -4 16 -14 20 -50 20 -36 0 -46 -4 -50 -20 -4 -16 -37 -30 -37 -16 0 4
39 115 61 174 6 16 16 22 30 20 17 -2 28 -22 55 -98z m240 75 c16 -24 13 -75
-4 -75 -4 0 -13 -4 -21 -9 -11 -7 -10 -14 6 -37 35 -50 36 -54 14 -54 -13 0
-28 14 -43 40 -30 52 -48 52 -48 0 0 -29 -4 -40 -15 -40 -12 0 -15 18 -15 100
l0 100 55 0 c47 0 57 -3 71 -25z m214 15 c0 -5 -18 -10 -40 -10 -38 0 -40 -2
-40 -29 0 -26 4 -30 32 -33 46 -4 49 -28 4 -28 -33 0 -36 -2 -36 -29 0 -27 3
-30 37 -33 20 -2 38 -9 41 -15 3 -10 -13 -13 -57 -13 l-61 0 0 100 0 100 60 0
c33 0 60 -4 60 -10z m330 0 c0 -5 -18 -10 -40 -10 -38 0 -40 -2 -40 -29 0 -26
4 -30 32 -33 46 -4 49 -28 4 -28 -36 0 -36 0 -36 -45 0 -38 -3 -45 -20 -45
-19 0 -20 7 -20 100 l0 100 60 0 c33 0 60 -4 60 -10z m472 -7 c24 -21 23 -58
-2 -83 -25 -25 -25 -29 0 -60 25 -32 25 -40 1 -40 -13 0 -28 15 -42 40 -13 22
-29 40 -36 40 -9 0 -13 -14 -13 -40 0 -29 -4 -40 -15 -40 -12 0 -15 18 -15
100 l0 100 52 0 c34 0 58 -6 70 -17z m308 -58 c18 -41 35 -73 39 -71 4 3 20
36 36 75 21 50 35 71 48 71 15 0 17 -11 17 -100 0 -82 -3 -100 -15 -100 -12 0
-15 14 -16 68 l0 67 -31 -67 c-17 -38 -36 -68 -42 -68 -7 0 -26 30 -43 68
l-31 67 -1 -67 c-1 -53 -4 -68 -16 -68 -12 0 -15 18 -15 100 0 91 2 100 19
100 13 0 27 -20 51 -75z m367 -20 c18 -49 33 -93 33 -97 0 -17 -32 -6 -37 12
-4 16 -14 20 -50 20 -36 0 -46 -4 -50 -20 -3 -11 -14 -20 -24 -20 -17 0 -16 8
16 98 19 53 35 98 35 100 0 2 10 2 22 0 17 -2 28 -21 55 -93z m243 85 c0 -5
-11 -10 -25 -10 -25 0 -25 -1 -25 -90 0 -83 -1 -90 -20 -90 -19 0 -20 7 -20
90 0 89 0 90 -25 90 -14 0 -25 5 -25 10 0 6 30 10 70 10 40 0 70 -4 70 -10z
m110 -30 l0 -40 50 0 50 0 0 40 c0 29 4 40 15 40 12 0 15 -18 15 -100 0 -82
-3 -100 -15 -100 -11 0 -15 12 -15 45 l0 45 -50 0 -50 0 0 -45 c0 -33 -4 -45
-15 -45 -12 0 -15 18 -15 100 0 82 3 100 15 100 11 0 15 -11 15 -40z m844 24
c40 -39 5 -104 -56 -104 -26 0 -28 -3 -28 -40 0 -33 -3 -40 -20 -40 -19 0 -20
7 -20 100 l0 100 54 0 c36 0 60 -5 70 -16z m126 -24 l0 -40 50 0 50 0 0 40 c0
29 4 40 15 40 12 0 15 -18 15 -100 0 -82 -3 -100 -15 -100 -11 0 -15 12 -15
45 l0 45 -50 0 -50 0 0 -45 c0 -33 -4 -45 -15 -45 -12 0 -15 18 -15 100 0 82
3 100 15 100 11 0 15 -11 15 -40z m264 -7 l24 -48 21 48 c15 34 26 47 40 47
19 0 18 -5 -14 -63 -22 -40 -35 -77 -35 -100 0 -26 -4 -37 -15 -37 -10 0 -15
11 -15 35 0 20 -13 62 -30 95 -35 69 -35 70 -15 70 8 0 26 -21 39 -47z m436
-53 c0 -93 -1 -100 -20 -100 -19 0 -20 7 -20 100 0 93 1 100 20 100 19 0 20
-7 20 -100z"/>
<path d="M6204 7809 c-56 -16 -78 -51 -82 -132 -3 -62 -1 -77 20 -106 31 -46
81 -60 117 -33 25 19 26 22 29 151 l3 131 -28 -1 c-15 0 -42 -5 -59 -10z"/>
<path d="M7771 7979 c-29 -31 -41 -96 -41 -221 0 -165 24 -230 85 -230 35 0
60 28 77 85 15 53 15 249 0 302 -22 78 -79 108 -121 64z"/>
<path d="M7135 6864 c-32 -35 -49 -120 -43 -224 8 -127 47 -200 109 -200 53 0
59 24 59 237 0 180 -1 193 -19 203 -35 18 -80 12 -106 -16z"/>
<path d="M7574 5676 c-10 -26 4 -48 28 -44 17 2 23 10 23 28 0 18 -6 26 -23
28 -13 2 -25 -3 -28 -12z"/>
<path d="M5816 5748 c-36 -51 -5 -118 53 -118 54 0 87 61 60 109 -21 37 -90
42 -113 9z"/>
<path d="M4846 5726 c-3 -13 -9 -31 -12 -40 -5 -13 1 -16 26 -16 25 0 31 3 26
16 -3 9 -9 27 -12 40 -8 31 -20 31 -28 0z"/>
<path d="M5060 5744 c0 -34 1 -35 33 -32 25 2 33 8 35 27 4 26 -12 41 -45 41
-20 0 -23 -5 -23 -36z"/>
<path d="M6080 5745 c0 -32 3 -35 28 -35 27 0 52 15 52 31 0 16 -33 39 -56 39
-21 0 -24 -5 -24 -35z"/>
<path d="M6776 5716 c-20 -49 -21 -46 14 -46 33 0 36 9 16 55 l-13 30 -17 -39z"/>
<path d="M7960 5746 c0 -33 2 -36 30 -36 55 0 51 62 -4 68 -24 3 -26 0 -26
-32z"/>
</g>
</svg>
